<?xml version="1.0" encoding="utf-8"?>
<!-- Generator: Adobe Illustrator 23.0.0, SVG Export Plug-In . SVG Version: 6.00 Build 0)  -->
<svg version="1.1" id="Calque_1" xmlns="http://www.w3.org/2000/svg" xmlns:xlink="http://www.w3.org/1999/xlink" x="0px" y="0px"
	 viewBox="0 0 152.62 169.33" style="enable-background:new 0 0 152.62 169.33;" xml:space="preserve">
<style type="text/css">
	.st0{fill:#7AAFDF;}
</style>
<g>
	<path class="st0" d="M150.95,28.99L77.26,0.17c-0.12-0.05-0.25-0.04-0.37-0.07C76.69,0.06,76.51,0,76.3,0
		c-0.21,0-0.4,0.06-0.6,0.11c-0.12,0.03-0.24,0.02-0.35,0.06l-0.1,0.04l0,0L1.66,28.99c-1.23,0.48-1.84,1.78-1.55,3.03
		C0.04,32.26,0,32.5,0,32.76v94.65c0,0.97,0.53,1.86,1.39,2.31l73.69,39.3c0.12,0.06,0.25,0.1,0.37,0.14
		c0.07,0.02,0.13,0.06,0.2,0.07c0.22,0.06,0.44,0.09,0.66,0.09s0.45-0.03,0.66-0.09c0.07-0.02,0.13-0.05,0.2-0.07
		c0.13-0.04,0.25-0.08,0.37-0.14l73.69-39.3c0.85-0.46,1.39-1.35,1.39-2.31V32.76c0-0.25-0.05-0.5-0.12-0.74
		C152.79,30.78,152.18,29.47,150.95,28.99z M76.31,63.93L7.74,32.24L76.31,5.43l68.56,26.81L76.31,63.93z M5.24,36.86l68.45,31.64
		v93.85l-68.45-36.5V36.86z M147.38,125.84l-68.45,36.5V68.49l68.45-31.64V125.84L147.38,125.84z"/>
</g>
</svg>
